<svg id="Flat-Expanded" enable-background="new 0 0 64 64" height="512" viewBox="0 0 64 64" width="512" xmlns="http://www.w3.org/2000/svg"><g fill="#304b68"><path d="m24.224 34.173-16.062-24.627 1.676-1.092 13.938 21.373 8.292-21.191 1.864.728z"/><path d="m54.404 55.803-30.182-22.393-14.409 20.171-1.626-1.162 15.591-21.829 31.818 23.607z"/><path d="m23.053 25.5h32.894v2h-32.894z" transform="matrix(.943 -.334 .334 .943 -6.583 14.717)"/></g><circle cx="24" cy="32" fill="#4ac3ed" r="9"/><circle cx="9" cy="9" fill="#4ac3ed" r="7"/><circle cx="33" cy="9" fill="#76cc7a" r="7"/><path d="m32 12.414-2.707-2.707 1.414-1.414 1.293 1.293 4.293-4.293 1.414 1.414z" fill="#304b68"/><circle cx="55" cy="21" fill="#76cc7a" r="7"/><path d="m54 24.414-2.707-2.707 1.414-1.414 1.293 1.293 4.293-4.293 1.414 1.414z" fill="#304b68"/><circle cx="55" cy="55" fill="#4ac3ed" r="7"/><circle cx="9" cy="53" fill="#76cc7a" r="7"/><path d="m8 56.414-2.707-2.707 1.414-1.414 1.293 1.293 4.293-4.293 1.414 1.414z" fill="#304b68"/></svg>